<svg width="46" height="46" viewBox="0 0 46 46" fill="none" xmlns="http://www.w3.org/2000/svg">
<path d="M22.4669 5.04443C16.8199 6.73294 7.21985 14.4951 13.9973 32.0462C15.0198 31.4846 18.1466 30.3595 22.4669 30.3595C26.7871 30.3595 29.9139 31.4846 30.9364 32.0462C37.7139 14.4951 28.1138 6.73294 22.4669 5.04443Z" stroke="white" stroke-width="1.5" stroke-linecap="round" stroke-linejoin="round"/>
<path d="M26.067 17.6453C26.067 16.6904 25.6877 15.7747 25.0125 15.0995C24.3373 14.4244 23.4216 14.045 22.4668 14.045C21.5119 14.045 20.5962 14.4244 19.921 15.0995C19.2458 15.7747 18.8665 16.6904 18.8665 17.6453C18.8665 18.6001 19.2458 19.5159 19.921 20.191C20.5962 20.8662 21.5119 21.2455 22.4668 21.2455C23.4216 21.2455 24.3373 20.8662 25.0125 20.191C25.6877 19.5159 26.067 18.6001 26.067 17.6453Z" stroke="white" stroke-width="1.5"/>
<path d="M32.3675 29.4504C34.9633 29.6898 38.1423 30.3937 40.4338 32.0462C40.4338 32.0462 41.3753 23.1608 33.2676 21.2455M12.5662 29.4504C9.97043 29.6898 6.79142 30.3937 4.49987 32.0462C4.49987 32.0462 3.55841 23.1608 11.6661 21.2455M17.9666 35.6464C17.9666 35.6464 18.7172 40.1467 22.4669 41.0468C26.2165 40.1467 26.9672 35.6464 26.9672 35.6464" stroke="white" stroke-width="1.5" stroke-linecap="round" stroke-linejoin="round"/>
</svg>
